<!DOCTYPE svg PUBLIC "-//W3C//DTD SVG 1.1//EN" "http://www.w3.org/Graphics/SVG/1.1/DTD/svg11.dtd">
<!-- Uploaded to: SVG Repo, www.svgrepo.com, Transformed by: SVG Repo Mixer Tools -->
<svg fill="#ffffff" version="1.1" id="Capa_1" xmlns="http://www.w3.org/2000/svg" xmlns:xlink="http://www.w3.org/1999/xlink" viewBox="-240.1 -240.1 970.20 970.20" xml:space="preserve" width="800px" height="800px" stroke="#ffffff">
<g id="SVGRepo_bgCarrier" stroke-width="0"/>
<g id="SVGRepo_tracerCarrier" stroke-linecap="round" stroke-linejoin="round"/>
<g id="SVGRepo_iconCarrier"> <g> <rect x="155.039" y="97.251" width="122.5" height="30.625"/> <rect x="197.148" y="142.232" width="122.5" height="30.625"/> <rect x="155.039" y="187.212" width="122.5" height="30.625"/> <rect x="197.148" y="232.193" width="122.5" height="30.632"/> <rect x="155.039" y="277.166" width="122.5" height="30.625"/> <path d="M22.969,362.717h183.75v52.951h-69.863v30.625h216.289v-30.625h-69.863v-52.951h183.75 c12.633,0,22.969-10.336,22.969-22.969V66.676c0-12.633-10.336-22.969-22.969-22.969H22.969C10.336,43.707,0,54.043,0,66.676 v273.073C0,352.381,10.336,362.717,22.969,362.717z M30.625,74.332h428.75v257.76H30.625V74.332z"/> </g> </g>
</svg>